<?xml version="1.0" encoding="UTF-8"?>
<svg id="Calque_1" data-name="Calque 1" xmlns="http://www.w3.org/2000/svg" viewBox="0 0 320.51 168.83">
  <defs>
    <style>
      .cls-1 {
        fill: #151734;
        stroke-width: 0px;
      }
    </style>
  </defs>
  <path class="cls-1" d="m310.96,68.92c-1.15,5.91-3.68,16.76-9.28,21.17-.39.3-.92-.13-.69-.57,2.35-4.35,3.85-9.21,4.51-13.93,0,0,0,0,0,0,1.2-8.3-.11-14.93-3.79-19.18-2.73-3.16-6.72-4.83-11.52-4.83-7.51,0-12.97,5.67-14.59,15.17h0s0,0,0,0c-.66,3.25-.55,6.59.05,9.78,1.01,6.11,4.61,12.82,9.6,17.32.92.83.54,2.36-.65,2.69-4.47,1.23-9.38,1.15-13.49-.59-8.62-4.39-8.14-16.99-8.45-25.69-.07-4.04.03-8.2-.4-12.33-.29-2.33-.73-4.99-2.32-7.1-1.84-2.69-5.79-3-8.54-1.93-1.93.74-3.53,1.9-4.86,3.34-.68.74-1.93.58-2.4-.32-.56-1.08-1.35-2.03-2.47-2.72-4.51-2.68-9.88-.55-12,4-4.72,7.89-4.81,31.8-11.4,35.42-10.66,3.25-6.41-25.32-6.04-31.14.45-1.26-.6-2.6-1.93-2.53-6.3-.15-12.13,2.13-17.31,5.55-2.66-3.98-7.5-5.65-12.15-5.12.33-9.94-.03-19.92-.41-29.81-.33-7.85-1.02-15.91-1.45-23.69-.02-1.07-.88-1.95-1.97-1.97-1.1-.02-2.02.86-2.03,1.97-.03,3.47.08,8.55.17,11.98.16,17.14,2.27,73.4-12.22,82.61-.56.3-1.14.51-1.76.6-.27.06-.55.08-.83.09-.27-2.02.41-4.46.86-6.71,1.72-8.04,5.28-16.01,4.36-24.64-1.28-10.24-14.05-10.12-20.19-4.34-3.44,3.12-5.42,7.34-6.63,11.69-.49-1.35-1.13-2.69-2.06-3.86-3.42-4.78-9.96-3.14-12.69,1.27-2.88,4.38-3.75,9.54-4.38,14.58-.12-1.1-.4-3.72-.4-3.72-.47-4.24-.9-8.58-1.31-12.83l-.13-1.28c-.18-2.22-2.35-4-4.58-3.75-1.31.08-2.33.9-3.2,1.81-1.69,1.62-3.42,3.2-5.19,4.72-1.62-3.77-4.37-7.35-8.67-8.3-6.52-1.26-13.12,2.75-13.16,9.72.04,4.44,1.91,8.93,6.43,10.71,2.45.88,5.41-.04,8.42-1.8,1.08-.63,2.43.27,2.27,1.51-.44,3.4-1.56,6.6-3.16,8.64-1.94,2.6-4.48,3.3-7.43,2.99-1.55-.15-3.16-.7-4.26-1.72-1.47-1.24-2.67-3.94-3.13-6.99-.5-3.06-.38-6.52.29-9.55.18-.65.14-1.36-.35-1.95-.66-.81-1.86-.92-2.76-.38-2.71,1.65-5.5,3.19-8.14,4.86-1.71,1.06-3.41,2.1-5.13,3.09,2.21-14.61-3.46-27.86-22.88-24.86-.02,0,0,.02-.01.02-.01.02-.05-.01-.06,0,0,0-.01,0-.01,0,0,0-.01,0,0-.01.01-.03-.03.04.02-.1,1.94-6.75,4.18-13.77,2.81-20.93-2.17-10.25-14.26-7.1-17.5.71-.59,1.35-.74,2.92-.57,4.38.53,6.93,2.72,31.2-3.48,34.67-4.54,1.03-2.42,7.52,1.8,5.8,7.27-3.2,6.65-13.92,6.81-20.45-.09-6.48-.65-12.84-1.24-19.18-.04-.33-.13-1.49-.18-1.78-.46-3.9,6.07-8.56,8.96-6.25.72.57,1.23,1.69,1.49,2.98.95,6.21-1.27,12.68-3.26,18.59-1.24,3.05,1.46,6.62,4.71,6.34l1.3-.11c16.88-1.75,17.48,12.16,13.35,24.11-1.12.45-2.26.87-3.43,1.22-8.88,2.65-18.14,2.96-27.43,2.89-5.05.15-10.52-.93-15.49.67-12.26,4.26-14.46,20.69-8.66,30.92,5.76,10.5,16.22,10.92,26.44,7.3,16.22-6.13,27.61-20.77,33.69-36.47.6-1.55,1.13-3.12,1.57-4.7.13-.08.27-.15.4-.23,4.18-2.44,8.01-5.14,11.97-7.51-1.5,6.23-2.15,12.94,2.07,18.33,4.66,5.54,13.35,6.29,19.44,2.74,8.45-5.52,9.69-16.79,7.44-25.94,2.57-2.35,4.83-4.65,6.4-6.12l.74-.74c.3-.24.77-.15,1,.14.22.2.26,1.37.32,1.65.53,4.24,1.09,8.57,1.55,12.81l2.35,20.51c.23,1.83,2.9,1.71,3-.12.28-7.49,1.5-15.16,4.09-22.18.93-2.42,3.2-8.03,5.84-7.54,1.05.75,2.06,3.19,2.47,4.73,1.35,4.49,2.03,9.58,2.75,14.51.1,2.66,3.92,2.65,3.96-.02,0-.01,0-.03,0-.04.06-.72.1-1.44.14-2.16.82-9.32,5.1-24.73,15.13-24.62,11.55,0-6.96,30.25-.88,37.22,2.43,2.8,6.4,2.44,9.48,1.4,2.52-.93,4.56-2.55,6.25-4.54,2.48,4.91,9.39,4.63,13.81,1.89,2.78-1.59,4.97-3.86,6.63-6.33,4.75-7.03,6.65-20,4.04-29.04,3.08-2.43,6.46-4.41,10.15-5.53.82-.25,1.56.53,1.3,1.34-1.89,5.77-3.03,11.75-3.14,17.9,0,4.26.56,9.11,3.19,12.98,3.17,4.81,9.95,6.55,15.17,4.03,10.1-5.31,8.54-21.4,9.59-30.88.44-4.15.92-12.51,5.3-13.47,2.04-.44,4.12.82,4.8,2.8.29.83.44,1.78.51,2.81.11,1.74-.09,3.49-.51,5.17-.79,3.16-1.19,6.39-1.43,9.22,0,.04-.02.08-.02.12-.19,2.62,3.68,3,3.99.37,0-.03,0-.06,0-.09.31-2.48.88-5.09,1.58-7.53,1.23-4.07,3.35-9.44,7.42-10.74.19-.06.46-.05.75,0,1.29.25,2.23,1.36,2.46,2.65.75,4.4.25,9.1.27,13.62-.03,8.24-.18,17.6,4.45,25.19,5.07,8.44,16.57,10.35,25.33,7.38,2.31-.8,4.41-1.95,6.31-3.35.72-.53,1.63-.73,2.51-.6,3.29.51,6.77-.07,10.25-2.18,8.82-5.81,12.14-15.9,14.93-25.4,1.64-6.44-7.71-8.81-9.36-2.4ZM17.71,120.64c-8.91-.72-10.66-16.36-5.53-21.32,1.53-1.55,3.46-2.26,5.7-2.41,3.13-.19,6.39-.27,9.6-.58,8.39-.67,17.05-1.8,25.2-4.36,1.03-.32,1.92.76,1.41,1.71-7.46,13.56-20.79,27-36.38,26.97Zm74.56-42.49c-4.17.32-5.68-6.98-3.14-9.54,1.12-1.2,2.9-1.57,4.53-1.56.7,0,1.33.1,1.94.42,1.98,1.22,3.27,3.35,3.99,5.87.13.45-.05.93-.43,1.21-.27.2-.53.39-.81.58-1.97,1.3-3.85,2.51-6.08,3.02Zm67.64,19.05s.01,0,.01,0c-.04,0-.03-.02-.01,0Zm28.46-34.24c.25.38.19.88-.16,1.18-2.26,1.92-4.36,4-6.27,6.11-.21.25-.43.5-.65.76-.57.67-1.66.21-1.56-.67.39-3.25.68-6.51.87-9.79.03-.46.39-.83.85-.83,2.71,0,5.4.97,6.92,3.23Zm-2.56,27.99c-2.01,2.96-5.59,5.94-9.14,5.29-.13-.06-.14-.07-.19-.12-.45-.8-.35-1.88-.18-3.14,1.4-6.91,5.67-13.33,10.12-18.89,1.24-1.45,2.55-2.9,3.93-4.29.71,7.21-1.19,16.49-4.53,21.14Zm104.39-35.36c3.66,0,6.52,1.16,8.5,3.44,2.4,2.77,3.5,7.23,3.18,12.76-.07,1.28-.96,2.41-2.21,2.71-1.43.34-2.9.52-4.39.52-5.88,0-11.28-2.68-14.82-7.26-.5-.65-.7-1.48-.49-2.27,1.03-3.98,3.66-9.9,10.23-9.9Zm-10.18,18.86c-.11-.51.48-.88.88-.55,3.99,3.27,9.03,5.12,14.39,5.12,1.21,0,2.4-.09,3.57-.28.94-.15,1.73.72,1.43,1.63-1.16,3.6-2.94,6.99-5.39,9.78-.76.86-2.01,1.16-3.05.66-5.91-2.86-10.32-9.62-11.84-16.35Z"/>
  <path class="cls-1" d="m279.72,112.5c-92.21-15.56-182.01,21.9-267.01,52.45-.98.37-1.52,1.44-1.22,2.46.32,1.06,1.44,1.65,2.5,1.33,83.25-24.25,175.21-56.31,261.99-35.96,5.6,1.03,10.98-2.67,12.01-8.27s-2.67-10.98-8.27-12.01Z"/>
  <path class="cls-1" d="m212.46,46.91c.19-.76.43-1.7.85-2.39.64-1.25,1.66-1.07,2.38-2.07.96-1.26.71-3.07-.56-4.02-1.26-.96-3.07-.71-4.02.56l-.51.67c-1.64,2.27-1.79,4.57-1.38,7.12.26,1.71,2.81,1.85,3.24.14Z"/>
</svg>