<?xml version="1.0" encoding="UTF-8"?>
<svg id="Calque_1" data-name="Calque 1" xmlns="http://www.w3.org/2000/svg" viewBox="0 0 114.92 137.48">
  <defs>
    <style>
      .cls-1 {
        fill: #cd2028;
        stroke-width: 0px;
      }
    </style>
  </defs>
  <path class="cls-1" d="m62.38,31.67c4.49-3.86,8.07-8.98,11.55-13.72,1.75-2.38,3.7-4.19,5.89-6.12,1.63-1.44,4.21-3.24,4.56-5.46,2.88-2.42,5.39-3.5,8.93-4.52,2.34-.68,4.92-2.22,7.43-1.77,6.01,1.08,10.08,8.5,13.13,12.97,2.85,21.94-.63,44.33-4.29,66.03-1.61,9.52-4.09,18.83-6.4,28.17-2.41,9.76-7.58,17.82-12.63,26.36-6.09,4.15-13.18,5.67-19.43,1-4.92-3.67-10.35-7.16-14.55-11.59-4.49-4.75-9.9-8.65-14.46-13.38-5.03-5.23-10.23-10.35-14.84-15.93-4.8-5.81-9.23-11.78-13.5-18.03-4.02-5.9-10.28-13.02-11.98-20.09-.73-3.06-1.56-6.79-1.77-9.95-.24-3.47,1.21-7.06,2.33-10.3,2.17-6.27,7.66-11.2,13.73-13.66,7.72-3.13,14.81-4.34,22.7-.72,7.73,3.55,14.97,10.1,23.6,10.71Z"/>
</svg>