<?xml version="1.0" encoding="UTF-8"?>
<svg id="Calque_1" data-name="Calque 1" xmlns="http://www.w3.org/2000/svg" viewBox="0 0 73.77 77.33">
  <defs>
    <style>
      .cls-1 {
        fill: #fff;
        stroke-width: 0px;
      }
    </style>
  </defs>
  <path class="cls-1" d="m73.23,49.11c0-.05,0-.11-.02-.16,0-.01,0-.03,0-.04,0,0,0,0,0,0,0-.03-.03-.06-.04-.09s-.02-.06-.03-.1l-7.42-16.41-4.84-10.37s-.01-.01-.02-.02c0-.01,0-.03-.01-.04l-.08-.15c-.11-.22-.28-.41-.5-.53L24.94.71c-.42-.24-.94-.21-1.32.08l-5.66,4.24c-.32.24-.5.62-.48,1.02,0,.17.06.33.14.48h0s11.51,22.63,11.51,22.63c.19.37.56.62.98.65l2.3.18L1.3,48.02s-.01,0-.02,0l-.18.11c-.36.22-.59.61-.59,1.03v5.68c0,.43.23.82.6,1.04l35.51,20.59s.03.03.05.04l.22.12c.18.1.38.15.58.15s.42-.05.6-.16l32.31-18.75,2.19-1.26s.12-.08.14-.09c.33-.22.53-.6.53-1v-6.32s0-.06-.01-.09Zm-21.45-22.36s.07.04.1.05l1.33.77,7.18,13.69-23.14-13.03-6.9-13.92,21.43,12.43Zm15.96,23.57l-.7.4-.51.3-28.99-16.69v-3.17l24.9,14.02,2.33,4.45c.2.39.6.63,1.04.64l1.93.04Zm-32.6-15.99L7.02,50.63l-2.72-1.57,30.83-17.88v3.14Zm-12.76,25.21c-.36-.21-.8-.21-1.17-.02-.18.1-.33.24-.44.41-.11.17-.18.37-.19.58,0,.14-.02.24-.04.32-.45-.29-1.22-1.25-1.42-2.66-.05-.36-.27-.68-.59-.87l-9.11-5.28,25.29-14.67,1.64-.94,23.84,13.71,3.95,2.29-24.39,14.15-2.58,1.5-4.1-2.36-10.69-6.16Zm47.8-11.57l-3.6-.08-10.92-20.83,2.96-2.22.72-.54,4.21,9.01,6.63,14.66ZM24.42,3.19l33.29,19.32-3.69,2.77-1.03-.6s-.07-.04-.1-.05l-24.79-14.39s-.06-.03-.09-.05l-7.19-4.31,3.59-2.69Zm-2.78,5.98l4.95,2.97,7.73,15.6-3.37-.26-9.31-18.31ZM2.92,51.04l3.48,2.02s0,0,0,0h0s10.43,6.04,10.43,6.04c.28,1.2.85,2.27,1.56,3.03.02.02.04.03.06.05.16.16.32.31.49.44.06.05.13.08.19.13.13.09.26.18.4.25.08.04.15.06.23.09.13.05.26.11.39.14.07.02.13.02.2.03.12.02.25.05.37.05.03,0,.06,0,.09,0,.45-.02.92-.18,1.3-.54.13-.12.25-.26.35-.42l13.6,7.83v3.18L2.92,54.15v-3.11Zm67.92,3.79l-32.38,18.78v-3.56l32.38-18.77v3.55Z"/>
</svg>