<?xml version="1.0" encoding="UTF-8"?>
<svg id="Calque_1" data-name="Calque 1" xmlns="http://www.w3.org/2000/svg" viewBox="0 0 65.32 65.32">
  <defs>
    <style>
      .cls-1 {
        fill: #1c1b19;
        stroke-width: 0px;
      }
    </style>
  </defs>
  <path class="cls-1" d="m62.92,41.36s0-.09-.02-.14c0-.01,0-.02,0-.03,0,0,0,0,0,0,0-.03-.02-.05-.03-.08s-.01-.05-.02-.08l-6.17-13.66-4.03-8.63s-.01-.01-.01-.02c0-.01,0-.02-.01-.03l-.07-.13c-.09-.19-.23-.34-.42-.44L22.71,1.07c-.35-.2-.78-.17-1.1.07l-4.71,3.53c-.27.2-.42.52-.4.85,0,.14.05.28.11.4h0s9.58,18.84,9.58,18.84c.16.31.47.52.81.54l1.92.15L3.04,40.45s0,0-.01,0l-.15.09c-.3.18-.49.51-.49.86v4.73c0,.36.19.68.5.86l29.56,17.14s.03.02.04.03l.18.1c.15.08.32.13.49.13s.35-.04.5-.13l26.9-15.61,1.82-1.05s.1-.06.12-.08c.28-.19.44-.5.44-.83v-5.26s0-.05-.01-.08Zm-17.86-18.62s.06.03.08.04l1.1.64,5.98,11.4-19.26-10.85-5.74-11.59,17.84,10.35Zm13.28,19.62l-.58.34-.43.25-24.13-13.9v-2.64l20.73,11.67,1.94,3.71c.17.32.5.53.86.54l1.6.03Zm-27.14-13.31l-23.41,13.58-2.26-1.31,25.67-14.88v2.62Zm-10.63,20.99c-.3-.17-.67-.18-.97-.01-.15.08-.28.2-.37.34-.09.14-.15.31-.16.48,0,.11-.02.2-.03.27-.37-.24-1.01-1.04-1.18-2.21-.04-.3-.22-.57-.49-.72l-7.58-4.4,21.05-12.22,1.36-.78,19.85,11.41,3.29,1.91-20.3,11.78-2.15,1.25-3.41-1.96-8.9-5.13Zm39.79-9.63l-2.99-.06-9.09-17.34,2.46-1.85.6-.45,3.5,7.5,5.52,12.2ZM22.28,3.13l27.72,16.08-3.07,2.3-.86-.5s-.06-.03-.08-.04l-20.64-11.98s-.05-.03-.07-.04l-5.99-3.59,2.99-2.24Zm-2.31,4.98l4.12,2.47,6.44,12.99-2.81-.22-7.75-15.24ZM4.39,42.97l2.89,1.68s0,0,0,0h0s8.68,5.03,8.68,5.03c.23,1,.71,1.89,1.3,2.52.02.02.03.03.05.05.13.14.26.26.4.37.05.04.11.07.16.1.11.07.22.15.33.21.06.03.13.05.19.08.11.04.21.09.32.12.05.01.11.01.16.02.1.02.21.04.31.04.03,0,.05,0,.08,0,.37-.02.76-.15,1.09-.45.11-.1.21-.21.29-.35l11.32,6.52v2.64l-27.59-15.99v-2.59Zm56.55,3.16l-26.96,15.64v-2.96l26.96-15.63v2.95Z"/>
</svg>