<?xml version="1.0" encoding="UTF-8"?>
<svg id="Calque_1" data-name="Calque 1" xmlns="http://www.w3.org/2000/svg" xmlns:xlink="http://www.w3.org/1999/xlink" viewBox="0 0 515.58 85.56">
  <defs>
    <style>
      .cls-1 {
        clip-path: url(#clippath);
      }

      .cls-2 {
        stroke-width: 0px;
      }

      .cls-2, .cls-3 {
        fill: none;
      }

      .cls-4 {
        clip-path: url(#clippath-1);
      }

      .cls-5 {
        clip-path: url(#clippath-4);
      }

      .cls-6 {
        clip-path: url(#clippath-3);
      }

      .cls-7 {
        clip-path: url(#clippath-2);
      }

      .cls-8 {
        clip-path: url(#clippath-7);
      }

      .cls-9 {
        clip-path: url(#clippath-6);
      }

      .cls-10 {
        clip-path: url(#clippath-5);
      }

      .cls-3 {
        stroke: #cd2028;
        stroke-miterlimit: 10;
      }
    </style>
    <clipPath id="clippath">
      <path class="cls-3" d="m.97,71.1L14.68,15.87C16.69,7.6,23.55,1.92,31,1.92h22.35c13.48,0,20.81,8.4,20.81,20.81,0,21.29-17.38,41.04-36.31,41.04h-6.39l-1.77,7.33c-2.13,8.63-10.29,13.95-17.86,13.95s-13.01-5.44-10.88-13.95Zm36.54-31.46h2.13c3.67,0,6.62-4.02,6.62-8.87,0-2.25-1.3-3.07-3.55-3.07h-2.13l-3.08,11.94Z"/>
    </clipPath>
    <clipPath id="clippath-1">
      <path class="cls-3" d="m75.83,69.8l13.48-54.28c1.89-7.45,7.92-15.02,17.98-15.02s12.77,6.5,10.64,15.26l-13.48,54.28c-1.89,7.57-7.69,14.9-18.33,14.9-10.05,0-12.18-7.57-10.29-15.14Z"/>
    </clipPath>
    <clipPath id="clippath-2">
      <path class="cls-3" d="m128.58,83.52c-7.09,0-10.76-5.08-10.76-11,0-4.02,1.54-8.4,4.85-12.3l25.55-29.92h-7.69c-5.56,0-11-3.43-11-10.29,0-9.46,8.63-18.09,18.09-18.09h30.27c5.56,0,10.64,3.55,10.64,10.41,0,4.61-1.89,9.22-5.68,13.6l-24.83,29.21h9.7c5.56,0,10.76,3.43,10.76,10.29,0,9.58-8.4,18.09-17.86,18.09h-32.05Z"/>
    </clipPath>
    <clipPath id="clippath-3">
      <path class="cls-3" d="m199.3,83.52c-7.09,0-10.76-5.08-10.76-11,0-4.02,1.54-8.4,4.85-12.3l25.55-29.92h-7.69c-5.56,0-11-3.43-11-10.29,0-9.46,8.63-18.09,18.09-18.09h30.27c5.56,0,10.64,3.55,10.64,10.41,0,4.61-1.89,9.22-5.68,13.6l-24.83,29.21h9.7c5.56,0,10.76,3.43,10.76,10.29,0,9.58-8.4,18.09-17.86,18.09h-32.05Z"/>
    </clipPath>
    <clipPath id="clippath-4">
      <path class="cls-3" d="m271.09,83.52c-10.29,0-12.18-7.57-10.29-15.14l12.77-51.21c2.01-7.92,8.16-15.26,17.86-15.26h26.14c5.32,0,10.41,3.43,10.41,10.53,0,9.11-8.16,16.91-17.27,16.91h-11.47l-1.65,6.62,2.96-1.18c2.48-1.06,4.49-1.42,6.5-1.42,3.9,0,6.62,1.89,6.62,5.79,0,6.74-4.97,11.47-11.71,11.47-1.18,0-3.55-.12-6.03-.95l-1.66-.59-1.66,6.98h12.77c5.32,0,10.41,3.43,10.41,10.41,0,9.11-8.04,17.03-17.27,17.03h-27.44Z"/>
    </clipPath>
    <clipPath id="clippath-5">
      <path class="cls-3" d="m326.33,69.8l13.13-52.63c1.89-7.57,8.51-15.26,16.79-15.26h23.65c13.48,0,21.17,6.03,21.17,17.27,0,14.55-8.87,26.25-21.52,28.62,5.91.83,9.46,5.68,9.93,11.59l.47,6.62c.83,11.71-5.44,18.8-15.73,18.8-7.33,0-13.36-4.02-13.36-12.65v-10.29c0-5.68,0-7.21-1.54-7.69l-.35-.12-4.02,15.97c-1.89,7.57-7.69,14.9-18.33,14.9-10.05,0-12.18-7.57-10.29-15.14Zm36.66-31.93h1.66c2.84,0,5.32-3.31,5.32-7.33,0-2.25-1.42-2.96-3.08-2.96h-1.3l-2.6,10.29Z"/>
    </clipPath>
    <clipPath id="clippath-6">
      <path class="cls-3" d="m403.91,69.8l13.48-54.28c1.89-7.45,7.92-15.02,17.98-15.02s12.77,6.5,10.64,15.26l-13.48,54.28c-1.89,7.57-7.69,14.9-18.33,14.9-10.05,0-12.18-7.57-10.29-15.14Z"/>
    </clipPath>
    <clipPath id="clippath-7">
      <path class="cls-2" d="m515.08,60.58c.12,15.85-5.68,24.01-16.91,24.01-6.98,0-14.31-2.84-12.89-13.72l.35-2.48h-11.12l-1.54,4.26c-2.96,8.4-9.7,11.94-17.15,11.94-11.12,0-14.19-10.41-9.11-20.22l23.89-46.71c7.1-13.84,17.38-17.15,26.37-17.15s17.74,3.55,17.86,17.15l.24,42.93Zm-24.83-29.33h-1.77l-6.62,16.91h6.39l2.01-16.91Z"/>
    </clipPath>
  </defs>
  <g>
    <g class="cls-1">
      <g>
        <path class="cls-3" d="m-14.87,84.18c46.45,0,46.45,15.13,92.91,15.13s46.45-15.13,92.91-15.13,46.46,15.13,92.91,15.13,46.46-15.13,92.91-15.13,46.46,15.13,92.92,15.13,46.46-15.13,92.92-15.13"/>
        <path class="cls-3" d="m-14.87,79.59c46.45,0,46.45,15.13,92.91,15.13s46.45-15.13,92.91-15.13,46.46,15.13,92.91,15.13,46.46-15.13,92.91-15.13,46.46,15.13,92.92,15.13,46.46-15.13,92.92-15.13"/>
        <path class="cls-3" d="m-14.87,75.01c46.45,0,46.45,15.13,92.91,15.13s46.45-15.13,92.91-15.13,46.46,15.13,92.91,15.13,46.46-15.13,92.91-15.13,46.46,15.13,92.92,15.13,46.46-15.13,92.92-15.13"/>
        <path class="cls-3" d="m-14.87,70.42c46.45,0,46.45,15.13,92.91,15.13s46.45-15.13,92.91-15.13,46.46,15.13,92.91,15.13,46.46-15.13,92.91-15.13,46.46,15.13,92.92,15.13,46.46-15.13,92.92-15.13"/>
        <path class="cls-3" d="m-14.87,65.83c46.45,0,46.45,15.13,92.91,15.13s46.45-15.13,92.91-15.13,46.46,15.13,92.91,15.13,46.46-15.13,92.91-15.13,46.46,15.13,92.92,15.13,46.46-15.13,92.92-15.13"/>
        <path class="cls-3" d="m-14.87,61.24c46.45,0,46.45,15.13,92.91,15.13s46.45-15.13,92.91-15.13,46.46,15.13,92.91,15.13,46.46-15.13,92.91-15.13,46.46,15.13,92.92,15.13,46.46-15.13,92.92-15.13"/>
        <path class="cls-3" d="m-14.87,56.65c46.45,0,46.45,15.13,92.91,15.13s46.45-15.13,92.91-15.13,46.46,15.13,92.91,15.13,46.46-15.13,92.91-15.13,46.46,15.13,92.92,15.13,46.46-15.13,92.92-15.13"/>
        <path class="cls-3" d="m-14.87,52.07c46.45,0,46.45,15.13,92.91,15.13s46.45-15.13,92.91-15.13,46.46,15.13,92.91,15.13,46.46-15.13,92.91-15.13,46.46,15.13,92.92,15.13,46.46-15.13,92.92-15.13"/>
        <path class="cls-3" d="m-14.87,47.48c46.45,0,46.45,15.13,92.91,15.13s46.45-15.13,92.91-15.13,46.46,15.13,92.91,15.13,46.46-15.13,92.91-15.13,46.46,15.13,92.92,15.13,46.46-15.13,92.92-15.13"/>
        <path class="cls-3" d="m-14.87,42.89c46.45,0,46.45,15.13,92.91,15.13s46.45-15.13,92.91-15.13,46.46,15.13,92.91,15.13,46.46-15.13,92.91-15.13,46.46,15.13,92.92,15.13,46.46-15.13,92.92-15.13"/>
        <path class="cls-3" d="m-14.87,38.3c46.45,0,46.45,15.13,92.91,15.13s46.45-15.13,92.91-15.13,46.46,15.13,92.91,15.13,46.46-15.13,92.91-15.13,46.46,15.13,92.92,15.13,46.46-15.13,92.92-15.13"/>
        <path class="cls-3" d="m-14.87,33.71c46.45,0,46.45,15.13,92.91,15.13s46.45-15.13,92.91-15.13,46.46,15.13,92.91,15.13,46.46-15.13,92.91-15.13,46.46,15.13,92.92,15.13,46.46-15.13,92.92-15.13"/>
        <path class="cls-3" d="m-14.87,29.13c46.45,0,46.45,15.13,92.91,15.13s46.45-15.13,92.91-15.13,46.46,15.13,92.91,15.13,46.46-15.13,92.91-15.13,46.46,15.13,92.92,15.13,46.46-15.13,92.92-15.13"/>
        <path class="cls-3" d="m-14.87,24.54c46.45,0,46.45,15.13,92.91,15.13s46.45-15.13,92.91-15.13,46.46,15.13,92.91,15.13,46.46-15.13,92.91-15.13,46.46,15.13,92.92,15.13,46.46-15.13,92.92-15.13"/>
        <path class="cls-3" d="m-14.87,19.95c46.45,0,46.45,15.13,92.91,15.13s46.45-15.13,92.91-15.13,46.46,15.13,92.91,15.13,46.46-15.13,92.91-15.13,46.46,15.13,92.92,15.13,46.46-15.13,92.92-15.13"/>
        <path class="cls-3" d="m-14.87,15.36c46.45,0,46.45,15.13,92.91,15.13s46.45-15.13,92.91-15.13,46.46,15.13,92.91,15.13,46.46-15.13,92.91-15.13,46.46,15.13,92.92,15.13,46.46-15.13,92.92-15.13"/>
        <path class="cls-3" d="m-14.87,10.77c46.45,0,46.45,15.13,92.91,15.13s46.45-15.13,92.91-15.13,46.46,15.13,92.91,15.13,46.46-15.13,92.91-15.13,46.46,15.13,92.92,15.13,46.46-15.13,92.92-15.13"/>
        <path class="cls-3" d="m-14.87,6.19c46.45,0,46.45,15.13,92.91,15.13s46.45-15.13,92.91-15.13,46.46,15.13,92.91,15.13,46.46-15.13,92.91-15.13,46.46,15.13,92.92,15.13,46.46-15.13,92.92-15.13"/>
        <path class="cls-3" d="m-14.87,1.6c46.45,0,46.45,15.13,92.91,15.13S124.5,1.6,170.95,1.6s46.46,15.13,92.91,15.13S310.31,1.6,356.77,1.6s46.46,15.13,92.92,15.13,46.46-15.13,92.92-15.13"/>
        <path class="cls-3" d="m-14.87-2.99c46.45,0,46.45,15.13,92.91,15.13S124.5-2.99,170.95-2.99s46.46,15.13,92.91,15.13,46.46-15.13,92.91-15.13,46.46,15.13,92.92,15.13,46.46-15.13,92.92-15.13"/>
        <path class="cls-3" d="m-14.87-7.58C31.59-7.58,31.59,7.55,78.04,7.55s46.45-15.13,92.91-15.13,46.46,15.13,92.91,15.13,46.46-15.13,92.91-15.13,46.46,15.13,92.92,15.13,46.46-15.13,92.92-15.13"/>
        <path class="cls-3" d="m-14.87-12.17C31.59-12.17,31.59,2.96,78.04,2.96s46.45-15.13,92.91-15.13,46.46,15.13,92.91,15.13,46.46-15.13,92.91-15.13,46.46,15.13,92.92,15.13,46.46-15.13,92.92-15.13"/>
      </g>
    </g>
    <path class="cls-3" d="m.97,71.1L14.68,15.87C16.69,7.6,23.55,1.92,31,1.92h22.35c13.48,0,20.81,8.4,20.81,20.81,0,21.29-17.38,41.04-36.31,41.04h-6.39l-1.77,7.33c-2.13,8.63-10.29,13.95-17.86,13.95s-13.01-5.44-10.88-13.95Zm36.54-31.46h2.13c3.67,0,6.62-4.02,6.62-8.87,0-2.25-1.3-3.07-3.55-3.07h-2.13l-3.08,11.94Z"/>
  </g>
  <g>
    <g class="cls-4">
      <g>
        <path class="cls-3" d="m-14.87,84.18c46.45,0,46.45,15.13,92.91,15.13s46.45-15.13,92.91-15.13,46.46,15.13,92.91,15.13,46.46-15.13,92.91-15.13,46.46,15.13,92.92,15.13,46.46-15.13,92.92-15.13"/>
        <path class="cls-3" d="m-14.87,79.59c46.45,0,46.45,15.13,92.91,15.13s46.45-15.13,92.91-15.13,46.46,15.13,92.91,15.13,46.46-15.13,92.91-15.13,46.46,15.13,92.92,15.13,46.46-15.13,92.92-15.13"/>
        <path class="cls-3" d="m-14.87,75.01c46.45,0,46.45,15.13,92.91,15.13s46.45-15.13,92.91-15.13,46.46,15.13,92.91,15.13,46.46-15.13,92.91-15.13,46.46,15.13,92.92,15.13,46.46-15.13,92.92-15.13"/>
        <path class="cls-3" d="m-14.87,70.42c46.45,0,46.45,15.13,92.91,15.13s46.45-15.13,92.91-15.13,46.46,15.13,92.91,15.13,46.46-15.13,92.91-15.13,46.46,15.13,92.92,15.13,46.46-15.13,92.92-15.13"/>
        <path class="cls-3" d="m-14.87,65.83c46.45,0,46.45,15.13,92.91,15.13s46.45-15.13,92.91-15.13,46.46,15.13,92.91,15.13,46.46-15.13,92.91-15.13,46.46,15.13,92.92,15.13,46.46-15.13,92.92-15.13"/>
        <path class="cls-3" d="m-14.87,61.24c46.45,0,46.45,15.13,92.91,15.13s46.45-15.13,92.91-15.13,46.46,15.13,92.91,15.13,46.46-15.13,92.91-15.13,46.46,15.13,92.92,15.13,46.46-15.13,92.92-15.13"/>
        <path class="cls-3" d="m-14.87,56.65c46.45,0,46.45,15.13,92.91,15.13s46.45-15.13,92.91-15.13,46.46,15.13,92.91,15.13,46.46-15.13,92.91-15.13,46.46,15.13,92.92,15.13,46.46-15.13,92.92-15.13"/>
        <path class="cls-3" d="m-14.87,52.07c46.45,0,46.45,15.13,92.91,15.13s46.45-15.13,92.91-15.13,46.46,15.13,92.91,15.13,46.46-15.13,92.91-15.13,46.46,15.13,92.92,15.13,46.46-15.13,92.92-15.13"/>
        <path class="cls-3" d="m-14.87,47.48c46.45,0,46.45,15.13,92.91,15.13s46.45-15.13,92.91-15.13,46.46,15.13,92.91,15.13,46.46-15.13,92.91-15.13,46.46,15.13,92.92,15.13,46.46-15.13,92.92-15.13"/>
        <path class="cls-3" d="m-14.87,42.89c46.45,0,46.45,15.13,92.91,15.13s46.45-15.13,92.91-15.13,46.46,15.13,92.91,15.13,46.46-15.13,92.91-15.13,46.46,15.13,92.92,15.13,46.46-15.13,92.92-15.13"/>
        <path class="cls-3" d="m-14.87,38.3c46.45,0,46.45,15.13,92.91,15.13s46.45-15.13,92.91-15.13,46.46,15.13,92.91,15.13,46.46-15.13,92.91-15.13,46.46,15.13,92.92,15.13,46.46-15.13,92.92-15.13"/>
        <path class="cls-3" d="m-14.87,33.71c46.45,0,46.45,15.13,92.91,15.13s46.45-15.13,92.91-15.13,46.46,15.13,92.91,15.13,46.46-15.13,92.91-15.13,46.46,15.13,92.92,15.13,46.46-15.13,92.92-15.13"/>
        <path class="cls-3" d="m-14.87,29.13c46.45,0,46.45,15.13,92.91,15.13s46.45-15.13,92.91-15.13,46.46,15.13,92.91,15.13,46.46-15.13,92.91-15.13,46.46,15.13,92.92,15.13,46.46-15.13,92.92-15.13"/>
        <path class="cls-3" d="m-14.87,24.54c46.45,0,46.45,15.13,92.91,15.13s46.45-15.13,92.91-15.13,46.46,15.13,92.91,15.13,46.46-15.13,92.91-15.13,46.46,15.13,92.92,15.13,46.46-15.13,92.92-15.13"/>
        <path class="cls-3" d="m-14.87,19.95c46.45,0,46.45,15.13,92.91,15.13s46.45-15.13,92.91-15.13,46.46,15.13,92.91,15.13,46.46-15.13,92.91-15.13,46.46,15.13,92.92,15.13,46.46-15.13,92.92-15.13"/>
        <path class="cls-3" d="m-14.87,15.36c46.45,0,46.45,15.13,92.91,15.13s46.45-15.13,92.91-15.13,46.46,15.13,92.91,15.13,46.46-15.13,92.91-15.13,46.46,15.13,92.92,15.13,46.46-15.13,92.92-15.13"/>
        <path class="cls-3" d="m-14.87,10.77c46.45,0,46.45,15.13,92.91,15.13s46.45-15.13,92.91-15.13,46.46,15.13,92.91,15.13,46.46-15.13,92.91-15.13,46.46,15.13,92.92,15.13,46.46-15.13,92.92-15.13"/>
        <path class="cls-3" d="m-14.87,6.19c46.45,0,46.45,15.13,92.91,15.13s46.45-15.13,92.91-15.13,46.46,15.13,92.91,15.13,46.46-15.13,92.91-15.13,46.46,15.13,92.92,15.13,46.46-15.13,92.92-15.13"/>
        <path class="cls-3" d="m-14.87,1.6c46.45,0,46.45,15.13,92.91,15.13S124.5,1.6,170.95,1.6s46.46,15.13,92.91,15.13S310.31,1.6,356.77,1.6s46.46,15.13,92.92,15.13,46.46-15.13,92.92-15.13"/>
        <path class="cls-3" d="m-14.87-2.99c46.45,0,46.45,15.13,92.91,15.13S124.5-2.99,170.95-2.99s46.46,15.13,92.91,15.13,46.46-15.13,92.91-15.13,46.46,15.13,92.92,15.13,46.46-15.13,92.92-15.13"/>
        <path class="cls-3" d="m-14.87-7.58C31.59-7.58,31.59,7.55,78.04,7.55s46.45-15.13,92.91-15.13,46.46,15.13,92.91,15.13,46.46-15.13,92.91-15.13,46.46,15.13,92.92,15.13,46.46-15.13,92.92-15.13"/>
        <path class="cls-3" d="m-14.87-12.17C31.59-12.17,31.59,2.96,78.04,2.96s46.45-15.13,92.91-15.13,46.46,15.13,92.91,15.13,46.46-15.13,92.91-15.13,46.46,15.13,92.92,15.13,46.46-15.13,92.92-15.13"/>
      </g>
    </g>
    <path class="cls-3" d="m75.83,69.8l13.48-54.28c1.89-7.45,7.92-15.02,17.98-15.02s12.77,6.5,10.64,15.26l-13.48,54.28c-1.89,7.57-7.69,14.9-18.33,14.9-10.05,0-12.18-7.57-10.29-15.14Z"/>
  </g>
  <g>
    <g class="cls-7">
      <g>
        <path class="cls-3" d="m-14.87,84.18c46.45,0,46.45,15.13,92.91,15.13s46.45-15.13,92.91-15.13,46.46,15.13,92.91,15.13,46.46-15.13,92.91-15.13,46.46,15.13,92.92,15.13,46.46-15.13,92.92-15.13"/>
        <path class="cls-3" d="m-14.87,79.59c46.45,0,46.45,15.13,92.91,15.13s46.45-15.13,92.91-15.13,46.46,15.13,92.91,15.13,46.46-15.13,92.91-15.13,46.46,15.13,92.92,15.13,46.46-15.13,92.92-15.13"/>
        <path class="cls-3" d="m-14.87,75.01c46.45,0,46.45,15.13,92.91,15.13s46.45-15.13,92.91-15.13,46.46,15.13,92.91,15.13,46.46-15.13,92.91-15.13,46.46,15.13,92.92,15.13,46.46-15.13,92.92-15.13"/>
        <path class="cls-3" d="m-14.87,70.42c46.45,0,46.45,15.13,92.91,15.13s46.45-15.13,92.91-15.13,46.46,15.13,92.91,15.13,46.46-15.13,92.91-15.13,46.46,15.13,92.92,15.13,46.46-15.13,92.92-15.13"/>
        <path class="cls-3" d="m-14.87,65.83c46.45,0,46.45,15.13,92.91,15.13s46.45-15.13,92.91-15.13,46.46,15.13,92.91,15.13,46.46-15.13,92.91-15.13,46.46,15.13,92.92,15.13,46.46-15.13,92.92-15.13"/>
        <path class="cls-3" d="m-14.87,61.24c46.45,0,46.45,15.13,92.91,15.13s46.45-15.13,92.91-15.13,46.46,15.13,92.91,15.13,46.46-15.13,92.91-15.13,46.46,15.13,92.92,15.13,46.46-15.13,92.92-15.13"/>
        <path class="cls-3" d="m-14.87,56.65c46.45,0,46.45,15.13,92.91,15.13s46.45-15.13,92.91-15.13,46.46,15.13,92.91,15.13,46.46-15.13,92.91-15.13,46.46,15.13,92.92,15.13,46.46-15.13,92.92-15.13"/>
        <path class="cls-3" d="m-14.87,52.07c46.45,0,46.45,15.13,92.91,15.13s46.45-15.13,92.91-15.13,46.46,15.13,92.91,15.13,46.46-15.13,92.91-15.13,46.46,15.13,92.92,15.13,46.46-15.13,92.92-15.13"/>
        <path class="cls-3" d="m-14.87,47.48c46.45,0,46.45,15.13,92.91,15.13s46.45-15.13,92.91-15.13,46.46,15.13,92.91,15.13,46.46-15.13,92.91-15.13,46.46,15.13,92.92,15.13,46.46-15.13,92.92-15.13"/>
        <path class="cls-3" d="m-14.87,42.89c46.45,0,46.45,15.13,92.91,15.13s46.45-15.13,92.91-15.13,46.46,15.13,92.91,15.13,46.46-15.13,92.91-15.13,46.46,15.13,92.92,15.13,46.46-15.13,92.92-15.13"/>
        <path class="cls-3" d="m-14.87,38.3c46.45,0,46.45,15.13,92.91,15.13s46.45-15.13,92.91-15.13,46.46,15.13,92.91,15.13,46.46-15.13,92.91-15.13,46.46,15.13,92.92,15.13,46.46-15.13,92.92-15.13"/>
        <path class="cls-3" d="m-14.87,33.71c46.45,0,46.45,15.13,92.91,15.13s46.45-15.13,92.91-15.13,46.46,15.13,92.91,15.13,46.46-15.13,92.91-15.13,46.46,15.13,92.92,15.13,46.46-15.13,92.92-15.13"/>
        <path class="cls-3" d="m-14.87,29.13c46.45,0,46.45,15.13,92.91,15.13s46.45-15.13,92.91-15.13,46.46,15.13,92.91,15.13,46.46-15.13,92.91-15.13,46.46,15.13,92.92,15.13,46.46-15.13,92.92-15.13"/>
        <path class="cls-3" d="m-14.87,24.54c46.45,0,46.45,15.13,92.91,15.13s46.45-15.13,92.91-15.13,46.46,15.13,92.91,15.13,46.46-15.13,92.91-15.13,46.46,15.13,92.92,15.13,46.46-15.13,92.92-15.13"/>
        <path class="cls-3" d="m-14.87,19.95c46.45,0,46.45,15.13,92.91,15.13s46.45-15.13,92.91-15.13,46.46,15.13,92.91,15.13,46.46-15.13,92.91-15.13,46.46,15.13,92.92,15.13,46.46-15.13,92.92-15.13"/>
        <path class="cls-3" d="m-14.87,15.36c46.45,0,46.45,15.13,92.91,15.13s46.45-15.13,92.91-15.13,46.46,15.13,92.91,15.13,46.46-15.13,92.91-15.13,46.46,15.13,92.92,15.13,46.46-15.13,92.92-15.13"/>
        <path class="cls-3" d="m-14.87,10.77c46.45,0,46.45,15.13,92.91,15.13s46.45-15.13,92.91-15.13,46.46,15.13,92.91,15.13,46.46-15.13,92.91-15.13,46.46,15.13,92.92,15.13,46.46-15.13,92.92-15.13"/>
        <path class="cls-3" d="m-14.87,6.19c46.45,0,46.45,15.13,92.91,15.13s46.45-15.13,92.91-15.13,46.46,15.13,92.91,15.13,46.46-15.13,92.91-15.13,46.46,15.13,92.92,15.13,46.46-15.13,92.92-15.13"/>
        <path class="cls-3" d="m-14.87,1.6c46.45,0,46.45,15.13,92.91,15.13S124.5,1.6,170.95,1.6s46.46,15.13,92.91,15.13S310.31,1.6,356.77,1.6s46.46,15.13,92.92,15.13,46.46-15.13,92.92-15.13"/>
        <path class="cls-3" d="m-14.87-2.99c46.45,0,46.45,15.13,92.91,15.13S124.5-2.99,170.95-2.99s46.46,15.13,92.91,15.13,46.46-15.13,92.91-15.13,46.46,15.13,92.92,15.13,46.46-15.13,92.92-15.13"/>
        <path class="cls-3" d="m-14.87-7.58C31.59-7.58,31.59,7.55,78.04,7.55s46.45-15.13,92.91-15.13,46.46,15.13,92.91,15.13,46.46-15.13,92.91-15.13,46.46,15.13,92.92,15.13,46.46-15.13,92.92-15.13"/>
        <path class="cls-3" d="m-14.87-12.17C31.59-12.17,31.59,2.96,78.04,2.96s46.45-15.13,92.91-15.13,46.46,15.13,92.91,15.13,46.46-15.13,92.91-15.13,46.46,15.13,92.92,15.13,46.46-15.13,92.92-15.13"/>
      </g>
    </g>
    <path class="cls-3" d="m128.58,83.52c-7.09,0-10.76-5.08-10.76-11,0-4.02,1.54-8.4,4.85-12.3l25.55-29.92h-7.69c-5.56,0-11-3.43-11-10.29,0-9.46,8.63-18.09,18.09-18.09h30.27c5.56,0,10.64,3.55,10.64,10.41,0,4.61-1.89,9.22-5.68,13.6l-24.83,29.21h9.7c5.56,0,10.76,3.43,10.76,10.29,0,9.58-8.4,18.09-17.86,18.09h-32.05Z"/>
  </g>
  <g>
    <g class="cls-6">
      <g>
        <path class="cls-3" d="m-14.87,84.18c46.45,0,46.45,15.13,92.91,15.13s46.45-15.13,92.91-15.13,46.46,15.13,92.91,15.13,46.46-15.13,92.91-15.13,46.46,15.13,92.92,15.13,46.46-15.13,92.92-15.13"/>
        <path class="cls-3" d="m-14.87,79.59c46.45,0,46.45,15.13,92.91,15.13s46.45-15.13,92.91-15.13,46.46,15.13,92.91,15.13,46.46-15.13,92.91-15.13,46.46,15.13,92.92,15.13,46.46-15.13,92.92-15.13"/>
        <path class="cls-3" d="m-14.87,75.01c46.45,0,46.45,15.13,92.91,15.13s46.45-15.13,92.91-15.13,46.46,15.13,92.91,15.13,46.46-15.13,92.91-15.13,46.46,15.13,92.92,15.13,46.46-15.13,92.92-15.13"/>
        <path class="cls-3" d="m-14.87,70.42c46.45,0,46.45,15.13,92.91,15.13s46.45-15.13,92.91-15.13,46.46,15.13,92.91,15.13,46.46-15.13,92.91-15.13,46.46,15.13,92.92,15.13,46.46-15.13,92.92-15.13"/>
        <path class="cls-3" d="m-14.87,65.83c46.45,0,46.45,15.13,92.91,15.13s46.45-15.13,92.91-15.13,46.46,15.13,92.91,15.13,46.46-15.13,92.91-15.13,46.46,15.13,92.92,15.13,46.46-15.13,92.92-15.13"/>
        <path class="cls-3" d="m-14.87,61.24c46.45,0,46.45,15.13,92.91,15.13s46.45-15.13,92.91-15.13,46.46,15.13,92.91,15.13,46.46-15.13,92.91-15.13,46.46,15.13,92.92,15.13,46.46-15.13,92.92-15.13"/>
        <path class="cls-3" d="m-14.87,56.65c46.45,0,46.45,15.13,92.91,15.13s46.45-15.13,92.91-15.13,46.46,15.13,92.91,15.13,46.46-15.13,92.91-15.13,46.46,15.13,92.92,15.13,46.46-15.13,92.92-15.13"/>
        <path class="cls-3" d="m-14.87,52.07c46.45,0,46.45,15.13,92.91,15.13s46.45-15.13,92.91-15.13,46.46,15.13,92.91,15.13,46.46-15.13,92.91-15.13,46.46,15.13,92.92,15.13,46.46-15.13,92.92-15.13"/>
        <path class="cls-3" d="m-14.87,47.48c46.45,0,46.45,15.13,92.91,15.13s46.45-15.13,92.91-15.13,46.46,15.13,92.91,15.13,46.46-15.13,92.91-15.13,46.46,15.13,92.92,15.13,46.46-15.13,92.92-15.13"/>
        <path class="cls-3" d="m-14.87,42.89c46.45,0,46.45,15.13,92.91,15.13s46.45-15.13,92.91-15.13,46.46,15.13,92.91,15.13,46.46-15.13,92.91-15.13,46.46,15.13,92.92,15.13,46.46-15.13,92.92-15.13"/>
        <path class="cls-3" d="m-14.87,38.3c46.45,0,46.45,15.13,92.91,15.13s46.45-15.13,92.91-15.13,46.46,15.13,92.91,15.13,46.46-15.13,92.91-15.13,46.46,15.13,92.92,15.13,46.46-15.13,92.92-15.13"/>
        <path class="cls-3" d="m-14.87,33.71c46.45,0,46.45,15.13,92.91,15.13s46.45-15.13,92.91-15.13,46.46,15.13,92.91,15.13,46.46-15.13,92.91-15.13,46.46,15.13,92.92,15.13,46.46-15.13,92.92-15.13"/>
        <path class="cls-3" d="m-14.87,29.13c46.45,0,46.45,15.13,92.91,15.13s46.45-15.13,92.91-15.13,46.46,15.13,92.91,15.13,46.46-15.13,92.91-15.13,46.46,15.13,92.92,15.13,46.46-15.13,92.92-15.13"/>
        <path class="cls-3" d="m-14.87,24.54c46.45,0,46.45,15.13,92.91,15.13s46.45-15.13,92.91-15.13,46.46,15.13,92.91,15.13,46.46-15.13,92.91-15.13,46.46,15.13,92.92,15.13,46.46-15.13,92.92-15.13"/>
        <path class="cls-3" d="m-14.87,19.95c46.45,0,46.45,15.13,92.91,15.13s46.45-15.13,92.91-15.13,46.46,15.13,92.91,15.13,46.46-15.13,92.91-15.13,46.46,15.13,92.92,15.13,46.46-15.13,92.92-15.13"/>
        <path class="cls-3" d="m-14.87,15.36c46.45,0,46.45,15.13,92.91,15.13s46.45-15.13,92.91-15.13,46.46,15.13,92.91,15.13,46.46-15.13,92.91-15.13,46.46,15.13,92.92,15.13,46.46-15.13,92.92-15.13"/>
        <path class="cls-3" d="m-14.87,10.77c46.45,0,46.45,15.13,92.91,15.13s46.45-15.13,92.91-15.13,46.46,15.13,92.91,15.13,46.46-15.13,92.91-15.13,46.46,15.13,92.92,15.13,46.46-15.13,92.92-15.13"/>
        <path class="cls-3" d="m-14.87,6.19c46.45,0,46.45,15.13,92.91,15.13s46.45-15.13,92.91-15.13,46.46,15.13,92.91,15.13,46.46-15.13,92.91-15.13,46.46,15.13,92.92,15.13,46.46-15.13,92.92-15.13"/>
        <path class="cls-3" d="m-14.87,1.6c46.45,0,46.45,15.13,92.91,15.13S124.5,1.6,170.95,1.6s46.46,15.13,92.91,15.13S310.31,1.6,356.77,1.6s46.46,15.13,92.92,15.13,46.46-15.13,92.92-15.13"/>
        <path class="cls-3" d="m-14.87-2.99c46.45,0,46.45,15.13,92.91,15.13S124.5-2.99,170.95-2.99s46.46,15.13,92.91,15.13,46.46-15.13,92.91-15.13,46.46,15.13,92.92,15.13,46.46-15.13,92.92-15.13"/>
        <path class="cls-3" d="m-14.87-7.58C31.59-7.58,31.59,7.55,78.04,7.55s46.45-15.13,92.91-15.13,46.46,15.13,92.91,15.13,46.46-15.13,92.91-15.13,46.46,15.13,92.92,15.13,46.46-15.13,92.92-15.13"/>
        <path class="cls-3" d="m-14.87-12.17C31.59-12.17,31.59,2.96,78.04,2.96s46.45-15.13,92.91-15.13,46.46,15.13,92.91,15.13,46.46-15.13,92.91-15.13,46.46,15.13,92.92,15.13,46.46-15.13,92.92-15.13"/>
      </g>
    </g>
    <path class="cls-3" d="m199.3,83.52c-7.09,0-10.76-5.08-10.76-11,0-4.02,1.54-8.4,4.85-12.3l25.55-29.92h-7.69c-5.56,0-11-3.43-11-10.29,0-9.46,8.63-18.09,18.09-18.09h30.27c5.56,0,10.64,3.55,10.64,10.41,0,4.61-1.89,9.22-5.68,13.6l-24.83,29.21h9.7c5.56,0,10.76,3.43,10.76,10.29,0,9.58-8.4,18.09-17.86,18.09h-32.05Z"/>
  </g>
  <g>
    <g class="cls-5">
      <g>
        <path class="cls-3" d="m-14.87,84.18c46.45,0,46.45,15.13,92.91,15.13s46.45-15.13,92.91-15.13,46.46,15.13,92.91,15.13,46.46-15.13,92.91-15.13,46.46,15.13,92.92,15.13,46.46-15.13,92.92-15.13"/>
        <path class="cls-3" d="m-14.87,79.59c46.45,0,46.45,15.13,92.91,15.13s46.45-15.13,92.91-15.13,46.46,15.13,92.91,15.13,46.46-15.13,92.91-15.13,46.46,15.13,92.92,15.13,46.46-15.13,92.92-15.13"/>
        <path class="cls-3" d="m-14.87,75.01c46.45,0,46.45,15.13,92.91,15.13s46.45-15.13,92.91-15.13,46.46,15.13,92.91,15.13,46.46-15.13,92.91-15.13,46.46,15.13,92.92,15.13,46.46-15.13,92.92-15.13"/>
        <path class="cls-3" d="m-14.87,70.42c46.45,0,46.45,15.13,92.91,15.13s46.45-15.13,92.91-15.13,46.46,15.13,92.91,15.13,46.46-15.13,92.91-15.13,46.46,15.13,92.92,15.13,46.46-15.13,92.92-15.13"/>
        <path class="cls-3" d="m-14.87,65.83c46.45,0,46.45,15.13,92.91,15.13s46.45-15.13,92.91-15.13,46.46,15.13,92.91,15.13,46.46-15.13,92.91-15.13,46.46,15.13,92.92,15.13,46.46-15.13,92.92-15.13"/>
        <path class="cls-3" d="m-14.87,61.24c46.45,0,46.45,15.13,92.91,15.13s46.45-15.13,92.91-15.13,46.46,15.13,92.91,15.13,46.46-15.13,92.91-15.13,46.46,15.13,92.92,15.13,46.46-15.13,92.92-15.13"/>
        <path class="cls-3" d="m-14.87,56.65c46.45,0,46.45,15.13,92.91,15.13s46.45-15.13,92.91-15.13,46.46,15.13,92.91,15.13,46.46-15.13,92.91-15.13,46.46,15.13,92.92,15.13,46.46-15.13,92.92-15.13"/>
        <path class="cls-3" d="m-14.87,52.07c46.45,0,46.45,15.13,92.91,15.13s46.45-15.13,92.91-15.13,46.46,15.13,92.91,15.13,46.46-15.13,92.91-15.13,46.46,15.13,92.92,15.13,46.46-15.13,92.92-15.13"/>
        <path class="cls-3" d="m-14.87,47.48c46.45,0,46.45,15.13,92.91,15.13s46.45-15.13,92.91-15.13,46.46,15.13,92.91,15.13,46.46-15.13,92.91-15.13,46.46,15.13,92.92,15.13,46.46-15.13,92.92-15.13"/>
        <path class="cls-3" d="m-14.87,42.89c46.45,0,46.45,15.13,92.91,15.13s46.45-15.13,92.91-15.13,46.46,15.13,92.91,15.13,46.46-15.13,92.91-15.13,46.46,15.13,92.92,15.13,46.46-15.13,92.92-15.13"/>
        <path class="cls-3" d="m-14.87,38.3c46.45,0,46.45,15.13,92.91,15.13s46.45-15.13,92.91-15.13,46.46,15.13,92.91,15.13,46.46-15.13,92.91-15.13,46.46,15.13,92.92,15.13,46.46-15.13,92.92-15.13"/>
        <path class="cls-3" d="m-14.87,33.71c46.45,0,46.45,15.13,92.91,15.13s46.45-15.13,92.91-15.13,46.46,15.13,92.91,15.13,46.46-15.13,92.91-15.13,46.46,15.13,92.92,15.13,46.46-15.13,92.92-15.13"/>
        <path class="cls-3" d="m-14.87,29.13c46.45,0,46.45,15.13,92.91,15.13s46.45-15.13,92.91-15.13,46.46,15.13,92.91,15.13,46.46-15.13,92.91-15.13,46.46,15.13,92.92,15.13,46.46-15.13,92.92-15.13"/>
        <path class="cls-3" d="m-14.87,24.54c46.45,0,46.45,15.13,92.91,15.13s46.45-15.13,92.91-15.13,46.46,15.13,92.91,15.13,46.46-15.13,92.91-15.13,46.46,15.13,92.92,15.13,46.46-15.13,92.92-15.13"/>
        <path class="cls-3" d="m-14.87,19.95c46.45,0,46.45,15.13,92.91,15.13s46.45-15.13,92.91-15.13,46.46,15.13,92.91,15.13,46.46-15.13,92.91-15.13,46.46,15.13,92.92,15.13,46.46-15.13,92.92-15.13"/>
        <path class="cls-3" d="m-14.87,15.36c46.45,0,46.45,15.13,92.91,15.13s46.45-15.13,92.91-15.13,46.46,15.13,92.91,15.13,46.46-15.13,92.91-15.13,46.46,15.13,92.92,15.13,46.46-15.13,92.92-15.13"/>
        <path class="cls-3" d="m-14.87,10.77c46.45,0,46.45,15.13,92.91,15.13s46.45-15.13,92.91-15.13,46.46,15.13,92.91,15.13,46.46-15.13,92.91-15.13,46.46,15.13,92.92,15.13,46.46-15.13,92.92-15.13"/>
        <path class="cls-3" d="m-14.87,6.19c46.45,0,46.45,15.13,92.91,15.13s46.45-15.13,92.91-15.13,46.46,15.13,92.91,15.13,46.46-15.13,92.91-15.13,46.46,15.13,92.92,15.13,46.46-15.13,92.92-15.13"/>
        <path class="cls-3" d="m-14.87,1.6c46.45,0,46.45,15.13,92.91,15.13S124.5,1.6,170.95,1.6s46.46,15.13,92.91,15.13S310.31,1.6,356.77,1.6s46.46,15.13,92.92,15.13,46.46-15.13,92.92-15.13"/>
        <path class="cls-3" d="m-14.87-2.99c46.45,0,46.45,15.13,92.91,15.13S124.5-2.99,170.95-2.99s46.46,15.13,92.91,15.13,46.46-15.13,92.91-15.13,46.46,15.13,92.92,15.13,46.46-15.13,92.92-15.13"/>
        <path class="cls-3" d="m-14.87-7.58C31.59-7.58,31.59,7.55,78.04,7.55s46.45-15.13,92.91-15.13,46.46,15.13,92.91,15.13,46.46-15.13,92.91-15.13,46.46,15.13,92.92,15.13,46.46-15.13,92.92-15.13"/>
        <path class="cls-3" d="m-14.87-12.17C31.59-12.17,31.59,2.96,78.04,2.96s46.45-15.13,92.91-15.13,46.46,15.13,92.91,15.13,46.46-15.13,92.91-15.13,46.46,15.13,92.92,15.13,46.46-15.13,92.92-15.13"/>
      </g>
    </g>
    <path class="cls-3" d="m271.09,83.52c-10.29,0-12.18-7.57-10.29-15.14l12.77-51.21c2.01-7.92,8.16-15.26,17.86-15.26h26.14c5.32,0,10.41,3.43,10.41,10.53,0,9.11-8.16,16.91-17.27,16.91h-11.47l-1.65,6.62,2.96-1.18c2.48-1.06,4.49-1.42,6.5-1.42,3.9,0,6.62,1.89,6.62,5.79,0,6.74-4.97,11.47-11.71,11.47-1.18,0-3.55-.12-6.03-.95l-1.66-.59-1.66,6.98h12.77c5.32,0,10.41,3.43,10.41,10.41,0,9.11-8.04,17.03-17.27,17.03h-27.44Z"/>
  </g>
  <g>
    <g class="cls-10">
      <g>
        <path class="cls-3" d="m-14.87,84.18c46.45,0,46.45,15.13,92.91,15.13s46.45-15.13,92.91-15.13,46.46,15.13,92.91,15.13,46.46-15.13,92.91-15.13,46.46,15.13,92.92,15.13,46.46-15.13,92.92-15.13"/>
        <path class="cls-3" d="m-14.87,79.59c46.45,0,46.45,15.13,92.91,15.13s46.45-15.13,92.91-15.13,46.46,15.13,92.91,15.13,46.46-15.13,92.91-15.13,46.46,15.13,92.92,15.13,46.46-15.13,92.92-15.13"/>
        <path class="cls-3" d="m-14.87,75.01c46.45,0,46.45,15.13,92.91,15.13s46.45-15.13,92.91-15.13,46.46,15.13,92.91,15.13,46.46-15.13,92.91-15.13,46.46,15.13,92.92,15.13,46.46-15.13,92.92-15.13"/>
        <path class="cls-3" d="m-14.87,70.42c46.45,0,46.45,15.13,92.91,15.13s46.45-15.13,92.91-15.13,46.46,15.13,92.91,15.13,46.46-15.13,92.91-15.13,46.46,15.13,92.92,15.13,46.46-15.13,92.92-15.13"/>
        <path class="cls-3" d="m-14.87,65.83c46.45,0,46.45,15.13,92.91,15.13s46.45-15.13,92.91-15.13,46.46,15.13,92.91,15.13,46.46-15.13,92.91-15.13,46.46,15.13,92.92,15.13,46.46-15.13,92.92-15.13"/>
        <path class="cls-3" d="m-14.87,61.24c46.45,0,46.45,15.13,92.91,15.13s46.45-15.13,92.91-15.13,46.46,15.13,92.91,15.13,46.46-15.13,92.91-15.13,46.46,15.13,92.92,15.13,46.46-15.13,92.92-15.13"/>
        <path class="cls-3" d="m-14.87,56.65c46.45,0,46.45,15.13,92.91,15.13s46.45-15.13,92.91-15.13,46.46,15.13,92.91,15.13,46.46-15.13,92.91-15.13,46.46,15.13,92.92,15.13,46.46-15.13,92.92-15.13"/>
        <path class="cls-3" d="m-14.87,52.07c46.45,0,46.45,15.13,92.91,15.13s46.45-15.13,92.91-15.13,46.46,15.13,92.91,15.13,46.46-15.13,92.91-15.13,46.46,15.13,92.92,15.13,46.46-15.13,92.92-15.13"/>
        <path class="cls-3" d="m-14.87,47.48c46.45,0,46.45,15.13,92.91,15.13s46.45-15.13,92.91-15.13,46.46,15.13,92.91,15.13,46.46-15.13,92.91-15.13,46.46,15.13,92.92,15.13,46.46-15.13,92.92-15.13"/>
        <path class="cls-3" d="m-14.87,42.89c46.45,0,46.45,15.13,92.91,15.13s46.45-15.13,92.91-15.13,46.46,15.13,92.91,15.13,46.46-15.13,92.91-15.13,46.46,15.13,92.92,15.13,46.46-15.13,92.92-15.13"/>
        <path class="cls-3" d="m-14.87,38.3c46.45,0,46.45,15.13,92.91,15.13s46.45-15.13,92.91-15.13,46.46,15.13,92.91,15.13,46.46-15.13,92.91-15.13,46.46,15.13,92.92,15.13,46.46-15.13,92.92-15.13"/>
        <path class="cls-3" d="m-14.87,33.71c46.45,0,46.45,15.13,92.91,15.13s46.45-15.13,92.91-15.13,46.46,15.13,92.91,15.13,46.46-15.13,92.91-15.13,46.46,15.13,92.92,15.13,46.46-15.13,92.92-15.13"/>
        <path class="cls-3" d="m-14.87,29.13c46.45,0,46.45,15.13,92.91,15.13s46.45-15.13,92.91-15.13,46.46,15.13,92.91,15.13,46.46-15.13,92.91-15.13,46.46,15.13,92.92,15.13,46.46-15.13,92.92-15.13"/>
        <path class="cls-3" d="m-14.87,24.54c46.45,0,46.45,15.13,92.91,15.13s46.45-15.13,92.91-15.13,46.46,15.13,92.91,15.13,46.46-15.13,92.91-15.13,46.46,15.13,92.92,15.13,46.46-15.13,92.92-15.13"/>
        <path class="cls-3" d="m-14.87,19.95c46.45,0,46.45,15.13,92.91,15.13s46.45-15.13,92.91-15.13,46.46,15.13,92.91,15.13,46.46-15.13,92.91-15.13,46.46,15.13,92.92,15.13,46.46-15.13,92.92-15.13"/>
        <path class="cls-3" d="m-14.87,15.36c46.45,0,46.45,15.13,92.91,15.13s46.45-15.13,92.91-15.13,46.46,15.13,92.91,15.13,46.46-15.13,92.91-15.13,46.46,15.13,92.92,15.13,46.46-15.13,92.92-15.13"/>
        <path class="cls-3" d="m-14.87,10.77c46.45,0,46.45,15.13,92.91,15.13s46.45-15.13,92.91-15.13,46.46,15.13,92.91,15.13,46.46-15.13,92.91-15.13,46.46,15.13,92.92,15.13,46.46-15.13,92.92-15.13"/>
        <path class="cls-3" d="m-14.87,6.19c46.45,0,46.45,15.13,92.91,15.13s46.45-15.13,92.91-15.13,46.46,15.13,92.91,15.13,46.46-15.13,92.91-15.13,46.46,15.13,92.92,15.13,46.46-15.13,92.92-15.13"/>
        <path class="cls-3" d="m-14.87,1.6c46.45,0,46.45,15.13,92.91,15.13S124.5,1.6,170.95,1.6s46.46,15.13,92.91,15.13S310.31,1.6,356.77,1.6s46.46,15.13,92.92,15.13,46.46-15.13,92.92-15.13"/>
        <path class="cls-3" d="m-14.87-2.99c46.45,0,46.45,15.13,92.91,15.13S124.5-2.99,170.95-2.99s46.46,15.13,92.91,15.13,46.46-15.13,92.91-15.13,46.46,15.13,92.92,15.13,46.46-15.13,92.92-15.13"/>
        <path class="cls-3" d="m-14.87-7.58C31.59-7.58,31.59,7.55,78.04,7.55s46.45-15.13,92.91-15.13,46.46,15.13,92.91,15.13,46.46-15.13,92.91-15.13,46.46,15.13,92.92,15.13,46.46-15.13,92.92-15.13"/>
        <path class="cls-3" d="m-14.87-12.17C31.59-12.17,31.59,2.96,78.04,2.96s46.45-15.13,92.91-15.13,46.46,15.13,92.91,15.13,46.46-15.13,92.91-15.13,46.46,15.13,92.92,15.13,46.46-15.13,92.92-15.13"/>
      </g>
    </g>
    <path class="cls-3" d="m326.33,69.8l13.13-52.63c1.89-7.57,8.51-15.26,16.79-15.26h23.65c13.48,0,21.17,6.03,21.17,17.27,0,14.55-8.87,26.25-21.52,28.62,5.91.83,9.46,5.68,9.93,11.59l.47,6.62c.83,11.71-5.44,18.8-15.73,18.8-7.33,0-13.36-4.02-13.36-12.65v-10.29c0-5.68,0-7.21-1.54-7.69l-.35-.12-4.02,15.97c-1.89,7.57-7.69,14.9-18.33,14.9-10.05,0-12.18-7.57-10.29-15.14Zm36.66-31.93h1.66c2.84,0,5.32-3.31,5.32-7.33,0-2.25-1.42-2.96-3.08-2.96h-1.3l-2.6,10.29Z"/>
  </g>
  <g>
    <g class="cls-9">
      <g>
        <path class="cls-3" d="m-14.87,84.18c46.45,0,46.45,15.13,92.91,15.13s46.45-15.13,92.91-15.13,46.46,15.13,92.91,15.13,46.46-15.13,92.91-15.13,46.46,15.13,92.92,15.13,46.46-15.13,92.92-15.13"/>
        <path class="cls-3" d="m-14.87,79.59c46.45,0,46.45,15.13,92.91,15.13s46.45-15.13,92.91-15.13,46.46,15.13,92.91,15.13,46.46-15.13,92.91-15.13,46.46,15.13,92.92,15.13,46.46-15.13,92.92-15.13"/>
        <path class="cls-3" d="m-14.87,75.01c46.45,0,46.45,15.13,92.91,15.13s46.45-15.13,92.91-15.13,46.46,15.13,92.91,15.13,46.46-15.13,92.91-15.13,46.46,15.13,92.92,15.13,46.46-15.13,92.92-15.13"/>
        <path class="cls-3" d="m-14.87,70.42c46.45,0,46.45,15.13,92.91,15.13s46.45-15.13,92.91-15.13,46.46,15.13,92.91,15.13,46.46-15.13,92.91-15.13,46.46,15.13,92.92,15.13,46.46-15.13,92.92-15.13"/>
        <path class="cls-3" d="m-14.87,65.83c46.45,0,46.45,15.13,92.91,15.13s46.45-15.13,92.91-15.13,46.46,15.13,92.91,15.13,46.46-15.13,92.91-15.13,46.46,15.13,92.92,15.13,46.46-15.13,92.92-15.13"/>
        <path class="cls-3" d="m-14.87,61.24c46.45,0,46.45,15.13,92.91,15.13s46.45-15.13,92.91-15.13,46.46,15.13,92.91,15.13,46.46-15.13,92.91-15.13,46.46,15.13,92.92,15.13,46.46-15.13,92.92-15.13"/>
        <path class="cls-3" d="m-14.87,56.65c46.45,0,46.45,15.13,92.91,15.13s46.45-15.13,92.91-15.13,46.46,15.13,92.91,15.13,46.46-15.13,92.91-15.13,46.46,15.13,92.92,15.13,46.46-15.13,92.92-15.13"/>
        <path class="cls-3" d="m-14.87,52.07c46.45,0,46.45,15.13,92.91,15.13s46.45-15.13,92.91-15.13,46.46,15.13,92.91,15.13,46.46-15.13,92.91-15.13,46.46,15.13,92.92,15.13,46.46-15.13,92.92-15.13"/>
        <path class="cls-3" d="m-14.87,47.48c46.45,0,46.45,15.13,92.91,15.13s46.45-15.13,92.91-15.13,46.46,15.13,92.91,15.13,46.46-15.13,92.91-15.13,46.46,15.13,92.92,15.13,46.46-15.13,92.92-15.13"/>
        <path class="cls-3" d="m-14.87,42.89c46.45,0,46.45,15.13,92.91,15.13s46.45-15.13,92.91-15.13,46.46,15.13,92.91,15.13,46.46-15.13,92.91-15.13,46.46,15.13,92.92,15.13,46.46-15.13,92.92-15.13"/>
        <path class="cls-3" d="m-14.87,38.3c46.45,0,46.45,15.13,92.91,15.13s46.45-15.13,92.91-15.13,46.46,15.13,92.91,15.13,46.46-15.13,92.91-15.13,46.46,15.13,92.92,15.13,46.46-15.13,92.92-15.13"/>
        <path class="cls-3" d="m-14.87,33.71c46.45,0,46.45,15.13,92.91,15.13s46.45-15.13,92.91-15.13,46.46,15.13,92.91,15.13,46.46-15.13,92.91-15.13,46.46,15.13,92.92,15.13,46.46-15.13,92.92-15.13"/>
        <path class="cls-3" d="m-14.87,29.13c46.45,0,46.45,15.13,92.91,15.13s46.45-15.13,92.91-15.13,46.46,15.13,92.91,15.13,46.46-15.13,92.91-15.13,46.46,15.13,92.92,15.13,46.46-15.13,92.92-15.13"/>
        <path class="cls-3" d="m-14.87,24.54c46.45,0,46.45,15.13,92.91,15.13s46.45-15.13,92.91-15.13,46.46,15.13,92.91,15.13,46.46-15.13,92.91-15.13,46.46,15.13,92.92,15.13,46.46-15.13,92.92-15.13"/>
        <path class="cls-3" d="m-14.87,19.95c46.45,0,46.45,15.13,92.91,15.13s46.45-15.13,92.91-15.13,46.46,15.13,92.91,15.13,46.46-15.13,92.91-15.13,46.46,15.13,92.92,15.13,46.46-15.13,92.92-15.13"/>
        <path class="cls-3" d="m-14.87,15.36c46.45,0,46.45,15.13,92.91,15.13s46.45-15.13,92.91-15.13,46.46,15.13,92.91,15.13,46.46-15.13,92.91-15.13,46.46,15.13,92.92,15.13,46.46-15.13,92.92-15.13"/>
        <path class="cls-3" d="m-14.87,10.77c46.45,0,46.45,15.13,92.91,15.13s46.45-15.13,92.91-15.13,46.46,15.13,92.91,15.13,46.46-15.13,92.91-15.13,46.46,15.13,92.92,15.13,46.46-15.13,92.92-15.13"/>
        <path class="cls-3" d="m-14.87,6.19c46.45,0,46.45,15.13,92.91,15.13s46.45-15.13,92.91-15.13,46.46,15.13,92.91,15.13,46.46-15.13,92.91-15.13,46.46,15.13,92.92,15.13,46.46-15.13,92.92-15.13"/>
        <path class="cls-3" d="m-14.87,1.6c46.45,0,46.45,15.13,92.91,15.13S124.5,1.6,170.95,1.6s46.46,15.13,92.91,15.13S310.31,1.6,356.77,1.6s46.46,15.13,92.92,15.13,46.46-15.13,92.92-15.13"/>
        <path class="cls-3" d="m-14.87-2.99c46.45,0,46.45,15.13,92.91,15.13S124.5-2.99,170.95-2.99s46.46,15.13,92.91,15.13,46.46-15.13,92.91-15.13,46.46,15.13,92.92,15.13,46.46-15.13,92.92-15.13"/>
        <path class="cls-3" d="m-14.87-7.58C31.59-7.58,31.59,7.55,78.04,7.55s46.45-15.13,92.91-15.13,46.46,15.13,92.91,15.13,46.46-15.13,92.91-15.13,46.46,15.13,92.92,15.13,46.46-15.13,92.92-15.13"/>
        <path class="cls-3" d="m-14.87-12.17C31.59-12.17,31.59,2.96,78.04,2.96s46.45-15.13,92.91-15.13,46.46,15.13,92.91,15.13,46.46-15.13,92.91-15.13,46.46,15.13,92.92,15.13,46.46-15.13,92.92-15.13"/>
      </g>
    </g>
    <path class="cls-3" d="m403.91,69.8l13.48-54.28c1.89-7.45,7.92-15.02,17.98-15.02s12.77,6.5,10.64,15.26l-13.48,54.28c-1.89,7.57-7.69,14.9-18.33,14.9-10.05,0-12.18-7.57-10.29-15.14Z"/>
  </g>
  <path class="cls-3" d="m515.08,60.58c.12,15.85-5.68,24.01-16.91,24.01-6.98,0-14.31-2.84-12.89-13.72l.35-2.48h-11.12l-1.54,4.26c-2.96,8.4-9.7,11.94-17.15,11.94-11.12,0-14.19-10.41-9.11-20.22l23.89-46.71c7.1-13.84,17.38-17.15,26.37-17.15s17.74,3.55,17.86,17.15l.24,42.93Zm-24.83-29.33h-1.77l-6.62,16.91h6.39l2.01-16.91Z"/>
  <g class="cls-8">
    <g>
      <path class="cls-3" d="m-14.87,84.18c46.45,0,46.45,15.13,92.91,15.13s46.45-15.13,92.91-15.13,46.46,15.13,92.91,15.13,46.46-15.13,92.91-15.13,46.46,15.13,92.92,15.13,46.46-15.13,92.92-15.13"/>
      <path class="cls-3" d="m-14.87,79.59c46.45,0,46.45,15.13,92.91,15.13s46.45-15.13,92.91-15.13,46.46,15.13,92.91,15.13,46.46-15.13,92.91-15.13,46.46,15.13,92.92,15.13,46.46-15.13,92.92-15.13"/>
      <path class="cls-3" d="m-14.87,75.01c46.45,0,46.45,15.13,92.91,15.13s46.45-15.13,92.91-15.13,46.46,15.13,92.91,15.13,46.46-15.13,92.91-15.13,46.46,15.13,92.92,15.13,46.46-15.13,92.92-15.13"/>
      <path class="cls-3" d="m-14.87,70.42c46.45,0,46.45,15.13,92.91,15.13s46.45-15.13,92.91-15.13,46.46,15.13,92.91,15.13,46.46-15.13,92.91-15.13,46.46,15.13,92.92,15.13,46.46-15.13,92.92-15.13"/>
      <path class="cls-3" d="m-14.87,65.83c46.45,0,46.45,15.13,92.91,15.13s46.45-15.13,92.91-15.13,46.46,15.13,92.91,15.13,46.46-15.13,92.91-15.13,46.46,15.13,92.92,15.13,46.46-15.13,92.92-15.13"/>
      <path class="cls-3" d="m-14.87,61.24c46.45,0,46.45,15.13,92.91,15.13s46.45-15.13,92.91-15.13,46.46,15.13,92.91,15.13,46.46-15.13,92.91-15.13,46.46,15.13,92.92,15.13,46.46-15.13,92.92-15.13"/>
      <path class="cls-3" d="m-14.87,56.65c46.45,0,46.45,15.13,92.91,15.13s46.45-15.13,92.91-15.13,46.46,15.13,92.91,15.13,46.46-15.13,92.91-15.13,46.46,15.13,92.92,15.13,46.46-15.13,92.92-15.13"/>
      <path class="cls-3" d="m-14.87,52.07c46.45,0,46.45,15.13,92.91,15.13s46.45-15.13,92.91-15.13,46.46,15.13,92.91,15.13,46.46-15.13,92.91-15.13,46.46,15.13,92.92,15.13,46.46-15.13,92.92-15.13"/>
      <path class="cls-3" d="m-14.87,47.48c46.45,0,46.45,15.13,92.91,15.13s46.45-15.13,92.91-15.13,46.46,15.13,92.91,15.13,46.46-15.13,92.91-15.13,46.46,15.13,92.92,15.13,46.46-15.13,92.92-15.13"/>
      <path class="cls-3" d="m-14.87,42.89c46.45,0,46.45,15.13,92.91,15.13s46.45-15.13,92.91-15.13,46.46,15.13,92.91,15.13,46.46-15.13,92.91-15.13,46.46,15.13,92.92,15.13,46.46-15.13,92.92-15.13"/>
      <path class="cls-3" d="m-14.87,38.3c46.45,0,46.45,15.13,92.91,15.13s46.45-15.13,92.91-15.13,46.46,15.13,92.91,15.13,46.46-15.13,92.91-15.13,46.46,15.13,92.92,15.13,46.46-15.13,92.92-15.13"/>
      <path class="cls-3" d="m-14.87,33.71c46.45,0,46.45,15.13,92.91,15.13s46.45-15.13,92.91-15.13,46.46,15.13,92.91,15.13,46.46-15.13,92.91-15.13,46.46,15.13,92.92,15.13,46.46-15.13,92.92-15.13"/>
      <path class="cls-3" d="m-14.87,29.13c46.45,0,46.45,15.13,92.91,15.13s46.45-15.13,92.91-15.13,46.46,15.13,92.91,15.13,46.46-15.13,92.91-15.13,46.46,15.13,92.92,15.13,46.46-15.13,92.92-15.13"/>
      <path class="cls-3" d="m-14.87,24.54c46.45,0,46.45,15.13,92.91,15.13s46.45-15.13,92.91-15.13,46.46,15.13,92.91,15.13,46.46-15.13,92.91-15.13,46.46,15.13,92.92,15.13,46.46-15.13,92.92-15.13"/>
      <path class="cls-3" d="m-14.87,19.95c46.45,0,46.45,15.13,92.91,15.13s46.45-15.13,92.91-15.13,46.46,15.13,92.91,15.13,46.46-15.13,92.91-15.13,46.46,15.13,92.92,15.13,46.46-15.13,92.92-15.13"/>
      <path class="cls-3" d="m-14.87,15.36c46.45,0,46.45,15.13,92.91,15.13s46.45-15.13,92.91-15.13,46.46,15.13,92.91,15.13,46.46-15.13,92.91-15.13,46.46,15.13,92.92,15.13,46.46-15.13,92.92-15.13"/>
      <path class="cls-3" d="m-14.87,10.77c46.45,0,46.45,15.13,92.91,15.13s46.45-15.13,92.91-15.13,46.46,15.13,92.91,15.13,46.46-15.13,92.91-15.13,46.46,15.13,92.92,15.13,46.46-15.13,92.92-15.13"/>
      <path class="cls-3" d="m-14.87,6.19c46.45,0,46.45,15.13,92.91,15.13s46.45-15.13,92.91-15.13,46.46,15.13,92.91,15.13,46.46-15.13,92.91-15.13,46.46,15.13,92.92,15.13,46.46-15.13,92.92-15.13"/>
      <path class="cls-3" d="m-14.87,1.6c46.45,0,46.45,15.13,92.91,15.13S124.5,1.6,170.95,1.6s46.46,15.13,92.91,15.13S310.31,1.6,356.77,1.6s46.46,15.13,92.92,15.13,46.46-15.13,92.92-15.13"/>
      <path class="cls-3" d="m-14.87-2.99c46.45,0,46.45,15.13,92.91,15.13S124.5-2.99,170.95-2.99s46.46,15.13,92.91,15.13,46.46-15.13,92.91-15.13,46.46,15.13,92.92,15.13,46.46-15.13,92.92-15.13"/>
      <path class="cls-3" d="m-14.87-7.58C31.59-7.58,31.59,7.55,78.04,7.55s46.45-15.13,92.91-15.13,46.46,15.13,92.91,15.13,46.46-15.13,92.91-15.13,46.46,15.13,92.92,15.13,46.46-15.13,92.92-15.13"/>
      <path class="cls-3" d="m-14.87-12.17C31.59-12.17,31.59,2.96,78.04,2.96s46.45-15.13,92.91-15.13,46.46,15.13,92.91,15.13,46.46-15.13,92.91-15.13,46.46,15.13,92.92,15.13,46.46-15.13,92.92-15.13"/>
    </g>
  </g>
</svg>